<?xml version="1.0" encoding="UTF-8" standalone="no"?>
<svg
   version="1.0"
   width="128.000000pt"
   height="128.000000pt"
   viewBox="0 0 128.000000 128.000000"
   preserveAspectRatio="xMidYMid meet"
   id="svg6"
   sodipodi:docname="folder.svg"
   inkscape:version="1.1.2 (0a00cf5339, 2022-02-04, custom)"
   xmlns:inkscape="http://www.inkscape.org/namespaces/inkscape"
   xmlns:sodipodi="http://sodipodi.sourceforge.net/DTD/sodipodi-0.dtd"
   xmlns:xlink="http://www.w3.org/1999/xlink"
   xmlns="http://www.w3.org/2000/svg"
   xmlns:svg="http://www.w3.org/2000/svg">
  <defs
     id="defs10">
    <linearGradient
       inkscape:collect="always"
       id="linearGradient904">
      <stop
         style="stop-color:#540052;stop-opacity:1"
         offset="0"
         id="stop900" />
      <stop
         style="stop-color:#9e0052;stop-opacity:1"
         offset="1"
         id="stop902" />
    </linearGradient>
    <linearGradient
       inkscape:collect="always"
       id="linearGradient850">
      <stop
         style="stop-color:#540052;stop-opacity:1"
         offset="0"
         id="stop846" />
      <stop
         style="stop-color:#9e0052;stop-opacity:1"
         offset="1"
         id="stop848" />
    </linearGradient>
    <linearGradient
       inkscape:collect="always"
       xlink:href="#linearGradient904"
       id="linearGradient852"
       x1="20"
       y1="640"
       x2="1251"
       y2="640"
       gradientUnits="userSpaceOnUse" />
    <linearGradient
       inkscape:collect="always"
       xlink:href="#linearGradient850"
       id="linearGradient860"
       x1="19.5"
       y1="640"
       x2="1251.5013"
       y2="640"
       gradientUnits="userSpaceOnUse" />
  </defs>
  <sodipodi:namedview
     id="namedview8"
     pagecolor="#505050"
     bordercolor="#eeeeee"
     borderopacity="1"
     inkscape:pageshadow="0"
     inkscape:pageopacity="0"
     inkscape:pagecheckerboard="0"
     inkscape:document-units="pt"
     showgrid="false"
     inkscape:zoom="3.6796875"
     inkscape:cx="67.125265"
     inkscape:cy="85.333333"
     inkscape:window-width="1402"
     inkscape:window-height="903"
     inkscape:window-x="2101"
     inkscape:window-y="1535"
     inkscape:window-maximized="0"
     inkscape:current-layer="g4" />
  <g
     transform="matrix(0.1,0,0,-0.1,0,128)"
     fill="#000000"
     stroke="none"
     id="g4">
    <path
       d="M 91,1183 C 69,1172 51,1152 39,1126 22,1088 20,1050 20,598 20,169 22,110 36,96 50,82 116,80 611,80 h 559 l 38,34 37,34 3,415 3,415 -27,31 -26,31 H 909 621 l -79,80 -79,80 H 294 c -137,0 -175,-4 -203,-17 z m 389,-98 44,-45 H 317 110 v 33 c 0,54 9,57 175,57 H 436 Z M 1160,570 V 180 H 635 110 v 390 390 h 525 525 z"
       id="path2"
       style="stroke:url(#linearGradient852);fill-opacity:1.0;fill:url(#linearGradient860)" />
  </g>
</svg>
